# xmcd
#
# Track frame offsets: 
#        182
#        57285
#        83100
#        116105
#        147665
#        182380
#        217250
#        250605
#        315392
#
# Disc length: 4626 seconds
#
# Revision: 3
# Processed by: cddbd v1.5.2PL0 Copyright (c) Steve Scherf et al.
# Submitted via: ExactAudioCopy v0.99pb4
#
DISCID=7f121009
DTITLE=Various Artist - The Secret Life Of Trance 4 CD2
DYEAR=1994
DGENRE=Trance, Techno, Hard Trance, Progressive Trance, Ambient, Acid
TTITLE0=Air Liquide - Space Brothers
TTITLE1=Caspar Pound - House (Peter Parker and Mr Tom Anderson Mix)
TTITLE2=RHC feat. Plavka - Heartbeat
TTITLE3=Sourmash - Pilgrimage To Paradise (Hardfloor Mix)
TTITLE4=Tanzmuzik - Container
TTITLE5=Baby Doc - Eurotic
TTITLE6=Basic Gravity - Rajah (Rise Mix)
TTITLE7=MLO - Wimborne (MLO Mix)
TTITLE8=Phax feat. Steve Bug - Tritop (Humate Mix)
EXTD=
EXTT0=
EXTT1=PETER PARKER and MR TOM ANDERSON MIX
EXTT2=
EXTT3=HARDFLOOR MIX
EXTT4=
EXTT5=
EXTT6=RISE MIX
EXTT7=MLO MIX
EXTT8=HUMATE MIX
PLAYORDER=
